REM DIRINDEX 1\2,1\3,1\4,1\5
REM DIRNAME cjc004,folder01,folder02,folder03,folder04
TITLE ""
FILE "1Q_t_1099-1108.mp3" MP3
  TRACK 01 AUDIO
    TITLE "3:cjc004_4201"
    INDEX 01 00:00:00
  TRACK 02 AUDIO
    TITLE "0:"
    INDEX 01 00:00:66
  TRACK 03 AUDIO
    TITLE "4:cjc004_4202"
    INDEX 01 00:01:15
  TRACK 04 AUDIO
    TITLE "0:"
    INDEX 01 00:02:30
  TRACK 05 AUDIO
    TITLE "5:cjc004_4203"
    INDEX 01 00:02:55
  TRACK 06 AUDIO
    TITLE "0:"
    INDEX 01 00:08:26
  TRACK 07 AUDIO
    TITLE "3:cjc004_4204"
    INDEX 01 00:09:00
  TRACK 08 AUDIO
    TITLE "0:"
    INDEX 01 00:10:02
  TRACK 09 AUDIO
    TITLE "4:cjc004_4205"
    INDEX 01 00:10:33
  TRACK 10 AUDIO
    TITLE "0:"
    INDEX 01 00:11:52
  TRACK 11 AUDIO
    TITLE "5:cjc004_4206"
    INDEX 01 00:12:05
  TRACK 12 AUDIO
    TITLE "0:"
    INDEX 01 00:14:58
  TRACK 13 AUDIO
    TITLE "3:cjc004_4207"
    INDEX 01 00:15:36
  TRACK 14 AUDIO
    TITLE "0:"
    INDEX 01 00:16:53
  TRACK 15 AUDIO
    TITLE "4:cjc004_4208"
    INDEX 01 00:17:04
  TRACK 16 AUDIO
    TITLE "0:"
    INDEX 01 00:18:68
  TRACK 17 AUDIO
    TITLE "5:cjc004_4209"
    INDEX 01 00:19:15
  TRACK 18 AUDIO
    TITLE "0:"
    INDEX 01 00:23:42
  TRACK 19 AUDIO
    TITLE "3:cjc004_4210"
    INDEX 01 00:24:22
  TRACK 20 AUDIO
    TITLE "0:"
    INDEX 01 00:25:35
  TRACK 21 AUDIO
    TITLE "4:cjc004_4211"
    INDEX 01 00:25:66
  TRACK 22 AUDIO
    TITLE "0:"
    INDEX 01 00:27:10
  TRACK 23 AUDIO
    TITLE "5:cjc004_4212"
    INDEX 01 00:27:39
  TRACK 24 AUDIO
    TITLE "0:"
    INDEX 01 00:32:07
  TRACK 25 AUDIO
    TITLE "3:cjc004_4213"
    INDEX 01 00:32:62
  TRACK 26 AUDIO
    TITLE "0:"
    INDEX 01 00:34:32
  TRACK 27 AUDIO
    TITLE "4:cjc004_4214"
    INDEX 01 00:34:57
  TRACK 28 AUDIO
    TITLE "0:"
    INDEX 01 00:35:70
  TRACK 29 AUDIO
    TITLE "5:cjc004_4215"
    INDEX 01 00:36:21
  TRACK 30 AUDIO
    TITLE "0:"
    INDEX 01 00:41:30
  TRACK 31 AUDIO
    TITLE "3:cjc004_4216"
    INDEX 01 00:42:10
  TRACK 32 AUDIO
    TITLE "0:"
    INDEX 01 00:43:48
  TRACK 33 AUDIO
    TITLE "4:cjc004_4217"
    INDEX 01 00:43:74
  TRACK 34 AUDIO
    TITLE "0:"
    INDEX 01 00:45:18
  TRACK 35 AUDIO
    TITLE "5:cjc004_4218"
    INDEX 01 00:45:43
  TRACK 36 AUDIO
    TITLE "0:"
    INDEX 01 00:50:19
  TRACK 37 AUDIO
    TITLE "3:cjc004_4219"
    INDEX 01 00:50:72
  TRACK 38 AUDIO
    TITLE "0:"
    INDEX 01 00:52:10
  TRACK 39 AUDIO
    TITLE "4:cjc004_4220"
    INDEX 01 00:52:34
  TRACK 40 AUDIO
    TITLE "0:"
    INDEX 01 00:54:13
  TRACK 41 AUDIO
    TITLE "5:cjc004_4221"
    INDEX 01 00:54:36
  TRACK 42 AUDIO
    TITLE "0:"
    INDEX 01 00:59:43
  TRACK 43 AUDIO
    TITLE "3:cjc004_4222"
    INDEX 01 01:00:21
  TRACK 44 AUDIO
    TITLE "0:"
    INDEX 01 01:01:34
  TRACK 45 AUDIO
    TITLE "4:cjc004_4223"
    INDEX 01 01:01:62
  TRACK 46 AUDIO
    TITLE "0:"
    INDEX 01 01:03:06
  TRACK 47 AUDIO
    TITLE "5:cjc004_4224"
    INDEX 01 01:03:33
  TRACK 48 AUDIO
    TITLE "0:"
    INDEX 01 01:07:06
  TRACK 49 AUDIO
    TITLE "3:cjc004_4225"
    INDEX 01 01:07:61
  TRACK 50 AUDIO
    TITLE "0:"
    INDEX 01 01:09:18
  TRACK 51 AUDIO
    TITLE "4:cjc004_4226"
    INDEX 01 01:09:44
  TRACK 52 AUDIO
    TITLE "0:"
    INDEX 01 01:11:15
  TRACK 53 AUDIO
    TITLE "5:cjc004_4227"
    INDEX 01 01:11:43
  TRACK 54 AUDIO
    TITLE "0:"
    INDEX 01 01:16:07
  TRACK 55 AUDIO
    TITLE "3:cjc004_4228"
    INDEX 01 01:16:63
  TRACK 56 AUDIO
    TITLE "0:"
    INDEX 01 01:18:07
  TRACK 57 AUDIO
    TITLE "4:cjc004_4229"
    INDEX 01 01:18:29
  TRACK 58 AUDIO
    TITLE "0:"
    INDEX 01 01:19:38
  TRACK 59 AUDIO
    TITLE "5:cjc004_4230"
    INDEX 01 01:19:62
  TRACK 60 AUDIO
    TITLE "0:"
    INDEX 01 01:25:19
